<svg width="10" height="10" viewBox="0 0 10 10" fill="none" xmlns="http://www.w3.org/2000/svg">
<path d="M6.9945 1L5.461 2.53134C5.29223 2.69983 5.15998 2.90072 5.07194 3.12146L5.03164 3.23342L4.66218 4.38085C4.59233 4.59778 4.59001 4.83081 4.65553 5.04909C4.82639 5.6183 5.40768 5.95194 5.9787 5.82355L6.05647 5.80316L7.22025 5.45383C7.45752 5.38261 7.6765 5.26197 7.86303 5.10037L7.95353 5.01619L10 2.973V7.3773C10 8.27476 9.27251 9.0023 8.37505 9.0023H1.62505C0.727587 9.0023 0 8.27476 0 7.3773L0.000193298 5.27761L0.0380149 5.26179L0.074608 5.24151L1.95433 4.06002L2.00341 4.03397C2.17076 3.96042 2.37119 4.01855 2.47138 4.17795C2.5325 4.27519 2.54517 4.39404 2.50812 4.50061L2.48544 4.55272L1.88157 5.69542L1.84653 5.76777C1.61018 6.3032 1.82515 6.93803 2.3506 7.2157C2.66062 7.37954 3.02748 7.38867 3.34324 7.24454L3.42801 7.20144L4.31045 6.70328L4.35299 6.67515C4.49981 6.56307 4.54487 6.35694 4.45101 6.19192C4.35715 6.02689 4.15695 5.96026 3.98557 6.02917L3.93965 6.05135L3.06015 6.54784L3.01119 6.57093C2.91084 6.60964 2.79765 6.60366 2.70102 6.5526C2.53317 6.4639 2.46036 6.26586 2.52393 6.09243L2.54468 6.04584L3.14854 4.90314L3.18827 4.8199C3.33271 4.48233 3.30382 4.09298 3.10637 3.77883C2.79076 3.27671 2.14363 3.10955 1.62794 3.38297L1.55521 3.42503L0 4.4025V2.625C0 1.75848 0.678277 1.05038 1.53284 1.00257L1.62505 1H6.9945ZM9.5878 0.772431L9.6529 0.832747L9.71316 0.897867C10.0948 1.34369 10.0744 2.01527 9.65239 2.43705L7.51196 4.57388C7.38047 4.70514 7.21852 4.8018 7.04057 4.85522L5.87678 5.20455C5.6123 5.28394 5.33353 5.13389 5.25414 4.8694C5.22502 4.77239 5.22605 4.66882 5.2571 4.57241L5.62656 3.42498C5.68138 3.25473 5.776 3.10001 5.90257 2.97364L8.0479 0.831832C8.47031 0.410118 9.14208 0.390408 9.5878 0.772431Z" fill="white"/>
</svg>
