<svg width="10" height="8" viewBox="0 0 10 8" fill="none" xmlns="http://www.w3.org/2000/svg">
<path d="M3.375 4.75C4.14346 4.75 4.78733 5.28341 4.95656 6.00017L9.625 6C9.83211 6 10 6.16789 10 6.375C10 6.56485 9.85892 6.72175 9.67589 6.74658L9.625 6.75L4.95644 6.75033C4.78703 7.46684 4.14328 8 3.375 8C2.60672 8 1.96297 7.46684 1.79356 6.75033L0.375 6.75C0.167893 6.75 0 6.58211 0 6.375C0 6.18515 0.141077 6.02825 0.324115 6.00342L0.375 6L1.79344 6.00017C1.96267 5.28341 2.60654 4.75 3.375 4.75ZM6.625 0C7.39346 0 8.03733 0.53341 8.20656 1.25017L9.625 1.25C9.83211 1.25 10 1.41789 10 1.625C10 1.81485 9.85892 1.97175 9.67589 1.99658L9.625 2L8.20644 2.00033C8.03703 2.71684 7.39328 3.25 6.625 3.25C5.85672 3.25 5.21297 2.71684 5.04356 2.00033L0.375 2C0.167893 2 0 1.83211 0 1.625C0 1.43515 0.141077 1.27825 0.324115 1.25342L0.375 1.25L5.04344 1.25017C5.21267 0.53341 5.85654 0 6.625 0Z" fill="#4473B8"/>
</svg>
