<svg width="10" height="10" viewBox="0 0 10 10" fill="none" xmlns="http://www.w3.org/2000/svg">
<path d="M9.5 3.25V7.875C9.5 8.77246 8.77246 9.5 7.875 9.5H2.125C1.22754 9.5 0.5 8.77246 0.5 7.875V3.25H9.5ZM2.625 6.5C2.27982 6.5 2 6.77982 2 7.125C2 7.47018 2.27982 7.75 2.625 7.75C2.97018 7.75 3.25 7.47018 3.25 7.125C3.25 6.77982 2.97018 6.5 2.625 6.5ZM5 6.5C4.65482 6.5 4.375 6.77982 4.375 7.125C4.375 7.47018 4.65482 7.75 5 7.75C5.34518 7.75 5.625 7.47018 5.625 7.125C5.625 6.77982 5.34518 6.5 5 6.5ZM2.625 4.25C2.27982 4.25 2 4.52982 2 4.875C2 5.22018 2.27982 5.5 2.625 5.5C2.97018 5.5 3.25 5.22018 3.25 4.875C3.25 4.52982 2.97018 4.25 2.625 4.25ZM5 4.25C4.65482 4.25 4.375 4.52982 4.375 4.875C4.375 5.22018 4.65482 5.5 5 5.5C5.34518 5.5 5.625 5.22018 5.625 4.875C5.625 4.52982 5.34518 4.25 5 4.25ZM7.375 4.25C7.02982 4.25 6.75 4.52982 6.75 4.875C6.75 5.22018 7.02982 5.5 7.375 5.5C7.72018 5.5 8 5.22018 8 4.875C8 4.52982 7.72018 4.25 7.375 4.25ZM7.875 0.5C8.77246 0.5 9.5 1.22754 9.5 2.125V2.5H0.5V2.125C0.5 1.22754 1.22754 0.5 2.125 0.5H7.875Z" fill="#4473B8"/>
</svg>
