<svg width="10" height="20" viewBox="0 0 10 20" fill="none" xmlns="http://www.w3.org/2000/svg">
<path fill-rule="evenodd" clip-rule="evenodd" d="M0.291925 10.5506H2.27584V19.49C2.27584 19.6666 2.4067 19.8095 2.56777 19.8095H5.93169C6.09305 19.8095 6.22361 19.6666 6.22361 19.49V10.5927H8.50427C8.65279 10.5927 8.77744 10.4708 8.79452 10.3097L9.14089 7.01856C9.1503 6.92806 9.1241 6.83732 9.06878 6.76927C9.01346 6.70153 8.93391 6.66255 8.85093 6.66255H6.22361V4.59948C6.22361 3.97764 6.52984 3.66221 7.13303 3.66221H8.85093C9.012 3.66221 9.14286 3.51931 9.14286 3.3427V0.321985C9.14286 0.145376 9.012 0.00247619 8.85093 0.00247619H6.48364C6.46678 0.00159754 6.42978 0 6.37527 0C5.96453 0 4.5368 0.0882642 3.40902 1.22372C2.15951 2.4821 2.33313 3.9889 2.37473 4.25002V6.66255H0.291925C0.130563 6.66255 0 6.80545 0 6.98206V10.2311C0 10.4074 0.130563 10.5506 0.291925 10.5506Z" fill="black"/>
</svg>
