<svg width="24" height="24" viewBox="0 0 24 24" fill="none" xmlns="http://www.w3.org/2000/svg">
<path d="M8.21707 0.643626C5.26857 1.65782 2.71852 3.84225 1.28411 6.57278C0.805978 7.50897 0.407532 8.52316 0.248154 9.61538C-0.30967 12.1899 0.0887759 14.9984 1.28411 17.3389C2.081 18.8992 3.19665 20.2254 4.63106 21.3177C5.90608 22.3319 7.42018 23.112 9.09365 23.5021C11.1656 24.0482 13.3172 24.0482 15.3094 23.5801C17.1423 23.19 18.8954 22.3319 20.3298 21.0056C21.8439 19.6793 22.8799 17.963 23.4377 16.0126C24.0752 13.9842 24.1549 11.7998 23.7565 9.69339C19.9314 9.69339 16.1063 9.69339 12.2812 9.69339C12.2812 11.2537 12.2812 12.814 12.2812 14.3743C14.5125 14.3743 16.7438 14.3743 18.8954 14.3743C18.6563 15.8566 17.7001 17.2609 16.4251 18.041C15.6282 18.5871 14.6719 18.8992 13.7156 19.0552C12.7594 19.2113 11.7234 19.2113 10.7671 19.0552C9.81085 18.8992 8.85458 18.4311 8.05769 17.885C6.78266 17.0268 5.74671 15.7006 5.26857 14.2183C4.71075 12.736 4.71075 11.0977 5.26857 9.53736C5.66702 8.52316 6.22484 7.50897 7.02173 6.72881C7.978 5.71461 9.25303 5.01248 10.6874 4.77843C11.8828 4.54439 13.0781 4.54439 14.2734 4.93446C15.2297 5.24652 16.186 5.79263 16.9032 6.41675C17.6204 5.71462 18.4173 4.93446 19.1345 4.23233C19.5329 3.84225 19.9314 3.45217 20.3298 3.0621C19.2142 2.0479 17.8595 1.18973 16.4251 0.643626C13.7953 -0.214542 10.8468 -0.214542 8.21707 0.643626Z" fill="white"/>
<path d="M8.21714 0.643469C10.8469 -0.214699 13.7954 -0.214698 16.4251 0.721485C17.8595 1.26759 19.2142 2.04774 20.3299 3.13996C19.9314 3.53003 19.533 3.92011 19.1346 4.31019C18.4173 5.01232 17.6205 5.79247 16.9033 6.49461C16.1861 5.79247 15.2298 5.24637 14.2735 5.01232C13.1579 4.70026 11.8828 4.62225 10.6875 4.85629C9.33278 5.16835 8.05776 5.87049 7.0218 6.80667C6.22491 7.58682 5.58739 8.60102 5.26864 9.61522C3.91392 8.60102 2.6389 7.58683 1.28418 6.57263C2.71858 3.84209 5.26864 1.65767 8.21714 0.643469Z" fill="#EA4335"/>
<path d="M0.248154 9.61535C0.487222 8.60115 0.805978 7.58695 1.28411 6.57275C2.63883 7.58695 3.91386 8.60115 5.26857 9.61535C4.71075 11.0976 4.71075 12.736 5.26857 14.2963C3.91386 15.3105 2.63883 16.3247 1.28411 17.3389C0.0887759 14.9204 -0.30967 12.1899 0.248154 9.61535Z" fill="#FBBC05"/>
<path d="M12.2014 9.69336C16.0265 9.69336 19.8516 9.69336 23.6767 9.69336C24.0751 11.7998 23.9954 13.9842 23.3579 16.0126C22.8001 17.885 21.7641 19.6013 20.25 21.0056C18.975 19.9914 17.7 19.0552 16.3453 18.041C17.6203 17.1828 18.4969 15.8566 18.8156 14.3743C16.5843 14.3743 14.353 14.3743 12.2014 14.3743C12.2014 12.814 12.2014 11.2537 12.2014 9.69336Z" fill="#4285F4"/>
<path d="M1.28418 17.339C2.6389 16.3248 3.91392 15.3106 5.26864 14.2964C5.74677 15.7787 6.78273 17.1049 8.05776 17.9631C8.85465 18.5092 9.81092 18.8993 10.7672 19.1333C11.7235 19.2894 12.6797 19.2894 13.7157 19.1333C14.672 18.9773 15.6282 18.5872 16.4251 18.1191C17.7001 19.1333 18.9752 20.0695 20.3299 21.0837C18.8955 22.332 17.222 23.1901 15.3095 23.6582C13.2376 24.1263 11.0859 24.1263 9.09372 23.5802C7.49993 23.1901 5.98584 22.41 4.63112 21.3958C3.27641 20.2255 2.08107 18.8213 1.28418 17.339Z" fill="#34A853"/>
</svg>
