<svg width="8" height="10" viewBox="0 0 8 10" fill="none" xmlns="http://www.w3.org/2000/svg">
<path d="M7 0.5C7.25642 0.5 7.46775 0.69302 7.49664 0.941689L7.5 1V2C7.5 2.27614 7.27614 2.5 7 2.5C6.74358 2.5 6.53225 2.30698 6.50336 2.05831L6.5 2H4.5V8.5H5C5.25642 8.5 5.46775 8.69302 5.49664 8.94169L5.5 9C5.5 9.25642 5.30698 9.46775 5.05831 9.49664L5 9.5H3C2.72386 9.5 2.5 9.27614 2.5 9C2.5 8.74358 2.69302 8.53225 2.94169 8.50336L3 8.5H3.5V2H1.5C1.5 2.25642 1.30698 2.46775 1.05831 2.49664L1 2.5C0.743582 2.5 0.532246 2.30698 0.503364 2.05831L0.5 2V1C0.5 0.723858 0.723858 0.5 1 0.5C1.25642 0.5 1.46775 0.69302 1.49664 0.941689L1.5 1H6.5C6.5 0.723858 6.72386 0.5 7 0.5Z" fill="#4473B8"/>
</svg>
