<svg width="19" height="16" viewBox="0 0 19 16" fill="none" xmlns="http://www.w3.org/2000/svg">
<path fill-rule="evenodd" clip-rule="evenodd" d="M17.8712 1.75869C17.584 1.88822 17.2888 1.99787 16.987 2.08673C17.3441 1.67538 17.6166 1.1914 17.7828 0.662004C17.8203 0.543202 17.7816 0.413368 17.6857 0.335692C17.5898 0.258017 17.4571 0.248636 17.3516 0.312202C16.7105 0.699228 16.0193 0.977133 15.2944 1.13984C14.5639 0.413368 13.572 0 12.5467 0C10.3822 0 8.62129 1.79239 8.62129 3.99544C8.62129 4.16903 8.63191 4.34141 8.65321 4.5117C5.96751 4.27162 3.47035 2.9278 1.75555 0.786885C1.69443 0.710635 1.60027 0.669584 1.50405 0.677539C1.40761 0.685119 1.3209 0.740505 1.27224 0.825535C0.924294 1.43298 0.740553 2.12748 0.740553 2.83459C0.740553 3.79731 1.0781 4.7105 1.67489 5.42436C1.49343 5.36042 1.31743 5.28042 1.14925 5.18571C1.05908 5.13438 0.949068 5.13528 0.859483 5.18743C0.769898 5.23997 0.713788 5.33611 0.711208 5.44102C0.710913 5.45889 0.710913 5.47652 0.710913 5.49438C0.710913 6.93149 1.47065 8.22548 2.63253 8.93048C2.53262 8.92028 2.43293 8.90557 2.33384 8.88621C2.23164 8.86662 2.1265 8.90294 2.05763 8.98242C1.98855 9.06152 1.96576 9.17207 1.99776 9.27293C2.42777 10.6393 3.53464 11.6445 4.87303 11.9509C3.76299 12.6586 2.49369 13.0292 1.16105 13.0292C0.882856 13.0292 0.603485 13.0128 0.329569 12.9796C0.193606 12.9632 0.06369 13.045 0.0173123 13.1766C-0.0290653 13.3082 0.0201879 13.4548 0.135726 13.5304C1.84772 14.6477 3.82721 15.2381 5.86031 15.2381C9.8569 15.2381 12.3569 13.32 13.7503 11.7108C15.4882 9.70416 16.4847 7.04811 16.4847 4.42404C16.4847 4.31439 16.483 4.20362 16.4798 4.09338C17.1653 3.56744 17.7557 2.93132 18.2358 2.1999C18.309 2.08875 18.3009 1.94218 18.2165 1.83989C18.1322 1.7376 17.9913 1.70443 17.8712 1.75869Z" fill="black"/>
</svg>
