<svg width="1286" height="436" viewBox="0 0 1286 436" fill="none" xmlns="http://www.w3.org/2000/svg">
<path d="M178.5 95.0826C192.583 95.0826 204 83.6473 204 69.5413C204 55.4352 192.583 44 178.5 44C164.417 44 153 55.4352 153 69.5413C153 83.6473 164.417 95.0826 178.5 95.0826Z" fill="#4473B8"/>
<path d="M255 219.596C269.083 219.596 280.5 208.161 280.5 194.055C280.5 179.949 269.083 168.514 255 168.514C240.917 168.514 229.5 179.949 229.5 194.055C229.5 208.161 240.917 219.596 255 219.596Z" fill="#4473B8"/>
<path d="M331.5 344.11C345.583 344.11 357 332.675 357 318.569C357 304.463 345.583 293.028 331.5 293.028C317.417 293.028 306 304.463 306 318.569C306 332.675 317.417 344.11 331.5 344.11Z" fill="#4473B8"/>
<path d="M102 219.596C116.083 219.596 127.5 208.161 127.5 194.055C127.5 179.949 116.083 168.514 102 168.514C87.9167 168.514 76.5 179.949 76.5 194.055C76.5 208.161 87.9167 219.596 102 219.596Z" fill="#4473B8"/>
<path d="M25.5 344.11C39.5833 344.11 51 332.675 51 318.569C51 304.463 39.5833 293.028 25.5 293.028C11.4167 293.028 0 304.463 0 318.569C0 332.675 11.4167 344.11 25.5 344.11Z" fill="#4473B8"/>
<path d="M178.5 344.11C192.583 344.11 204 332.675 204 318.569C204 304.463 192.583 293.028 178.5 293.028C164.417 293.028 153 304.463 153 318.569C153 332.675 164.417 344.11 178.5 344.11Z" fill="#4473B8"/>
<path d="M178.5 120.624C164.457 120.624 153 132.744 153 147.777V240.333C153 255.287 164.383 267.486 178.5 267.486C192.543 267.486 204 255.366 204 240.333V147.698C203.926 132.744 192.543 120.624 178.5 120.624Z" fill="#4473B8"/>
<path d="M255 245.138C240.957 245.138 229.5 257.258 229.5 272.291V364.847C229.5 379.801 240.883 392 255 392C269.043 392 280.5 379.88 280.5 364.847V272.212C280.426 257.258 269.043 245.138 255 245.138Z" fill="#4473B8"/>
<path d="M102 245.138C87.9565 245.138 76.5 257.258 76.5 272.291V364.847C76.5 379.801 87.8826 392 102 392C116.043 392 127.5 379.88 127.5 364.847V272.212C127.426 257.258 116.043 245.138 102 245.138Z" fill="#4473B8"/>
<path d="M405 184.47H449.485C459.902 184.47 469.276 186.063 477.61 189.249C485.943 192.434 493.051 196.967 498.933 202.849C504.815 208.607 509.288 215.53 512.352 223.616C515.538 231.703 517.132 240.585 517.132 250.265C517.132 260.067 515.538 269.011 512.352 277.097C509.288 285.184 504.815 292.106 498.933 297.865C493.051 303.623 485.943 308.095 477.61 311.281C469.276 314.467 459.902 316.059 449.485 316.059H405V184.47ZM448.382 292.535C455.612 292.535 461.985 291.555 467.5 289.594C473.014 287.512 477.61 284.632 481.286 280.957C484.963 277.281 487.72 272.87 489.558 267.724C491.396 262.456 492.316 256.636 492.316 250.265C492.316 243.894 491.396 238.135 489.558 232.989C487.72 227.721 484.963 223.249 481.286 219.573C477.61 215.897 473.014 213.079 467.5 211.119C461.985 209.036 455.612 207.995 448.382 207.995H429.816V292.535H448.382Z" fill="#2C2728"/>
<path d="M586.249 306.503H584.779C581.96 309.933 578.529 312.874 574.485 315.324C570.563 317.775 565.477 319 559.227 319C554.571 319 550.159 318.204 545.992 316.611C541.948 315.141 538.394 313.058 535.33 310.362C532.267 307.667 529.877 304.42 528.161 300.622C526.446 296.823 525.588 292.658 525.588 288.124C525.588 283.469 526.507 279.303 528.345 275.627C530.183 271.829 532.757 268.582 536.066 265.887C539.375 263.191 543.235 261.169 547.647 259.822C552.181 258.351 557.083 257.616 562.352 257.616C568.235 257.616 573.075 258.106 576.874 259.087C580.673 259.944 583.798 260.863 586.249 261.843V259.087C586.249 254.308 584.35 250.387 580.551 247.324C576.752 244.139 572.034 242.546 566.396 242.546C558.063 242.546 551.017 246.038 545.257 253.022L527.794 241.076C537.353 229.069 550.404 223.065 566.948 223.065C580.918 223.065 591.58 226.373 598.933 232.989C606.286 239.483 609.962 249.162 609.962 262.027V316.059H586.249V306.503ZM586.249 279.487C583.431 278.139 580.489 277.097 577.426 276.362C574.485 275.505 571.237 275.076 567.683 275.076C561.923 275.076 557.45 276.362 554.264 278.935C551.2 281.386 549.669 284.449 549.669 288.124C549.669 291.8 551.139 294.741 554.08 296.946C557.144 299.151 560.637 300.254 564.558 300.254C567.744 300.254 570.686 299.703 573.382 298.6C576.078 297.375 578.345 295.843 580.183 294.005C582.144 292.045 583.614 289.84 584.595 287.389C585.698 284.816 586.249 282.182 586.249 279.487Z" fill="#2C2728"/>
<path d="M634.41 245.67H618.602V225.086H634.41V197.519H658.491V225.086H680.55V245.67H658.491V280.589C658.491 282.672 658.675 284.632 659.042 286.47C659.533 288.185 660.39 289.656 661.616 290.881C663.332 292.841 665.783 293.821 668.969 293.821C671.052 293.821 672.707 293.638 673.932 293.27C675.158 292.78 676.322 292.167 677.425 291.432L684.226 312.567C681.407 313.915 678.344 314.895 675.035 315.508C671.849 316.243 668.295 316.611 664.373 316.611C659.839 316.611 655.734 315.937 652.057 314.589C648.503 313.119 645.501 311.158 643.05 308.708C637.29 303.194 634.41 295.353 634.41 285.184V245.67Z" fill="#2C2728"/>
<path d="M755.366 306.503H753.896C751.077 309.933 747.646 312.874 743.602 315.324C739.68 317.775 734.595 319 728.345 319C723.688 319 719.276 318.204 715.109 316.611C711.065 315.141 707.511 313.058 704.448 310.362C701.384 307.667 698.994 304.42 697.279 300.622C695.563 296.823 694.705 292.658 694.705 288.124C694.705 283.469 695.624 279.303 697.462 275.627C699.301 271.829 701.874 268.582 705.183 265.887C708.492 263.191 712.352 261.169 716.764 259.822C721.298 258.351 726.2 257.616 731.47 257.616C737.352 257.616 742.192 258.106 745.991 259.087C749.79 259.944 752.915 260.863 755.366 261.843V259.087C755.366 254.308 753.467 250.387 749.668 247.324C745.869 244.139 741.151 242.546 735.514 242.546C727.18 242.546 720.134 246.038 714.374 253.022L696.911 241.076C706.47 229.069 719.521 223.065 736.065 223.065C750.036 223.065 760.697 226.373 768.05 232.989C775.403 239.483 779.079 249.162 779.079 262.027V316.059H755.366V306.503ZM755.366 279.487C752.548 278.139 749.607 277.097 746.543 276.362C743.602 275.505 740.354 275.076 736.8 275.076C731.041 275.076 726.568 276.362 723.381 278.935C720.318 281.386 718.786 284.449 718.786 288.124C718.786 291.8 720.256 294.741 723.198 296.946C726.261 299.151 729.754 300.254 733.675 300.254C736.862 300.254 739.803 299.703 742.499 298.6C745.195 297.375 747.462 295.843 749.3 294.005C751.261 292.045 752.732 289.84 753.712 287.389C754.815 284.816 755.366 282.182 755.366 279.487Z" fill="#2C2728"/>
<path d="M840.842 183C844.273 183 847.459 183.306 850.401 183.919C853.342 184.532 855.977 185.328 858.305 186.308L851.504 207.811C850.278 207.198 848.93 206.708 847.459 206.341C846.111 205.973 844.396 205.789 842.312 205.789C838.759 205.789 835.94 206.953 833.857 209.281C831.773 211.486 830.732 214.611 830.732 218.654V226.005H853.158V246.589H830.732V316.059H806.651V246.589H790.475V226.005H806.651V217.184C806.651 211.67 807.448 206.831 809.041 202.665C810.756 198.377 813.146 194.823 816.21 192.005C819.273 189.065 822.889 186.859 827.055 185.389C831.222 183.796 835.817 183 840.842 183Z" fill="#2C2728"/>
<path d="M908.854 220.308C915.84 220.308 922.212 221.533 927.972 223.984C933.854 226.312 938.879 229.62 943.045 233.908C947.334 238.074 950.643 243.097 952.972 248.978C955.423 254.859 956.648 261.292 956.648 268.276C956.648 275.259 955.423 281.692 952.972 287.573C950.643 293.454 947.334 298.539 943.045 302.827C938.879 306.993 933.854 310.301 927.972 312.751C922.212 315.079 915.84 316.243 908.854 316.243C901.869 316.243 895.435 315.079 889.553 312.751C883.793 310.301 878.769 306.993 874.48 302.827C870.313 298.539 867.004 293.454 864.553 287.573C862.225 281.692 861.061 275.259 861.061 268.276C861.061 261.292 862.225 254.859 864.553 248.978C867.004 243.097 870.313 238.074 874.48 233.908C878.769 229.62 883.793 226.312 889.553 223.984C895.435 221.533 901.869 220.308 908.854 220.308ZM908.854 294.005C911.918 294.005 914.859 293.454 917.678 292.351C920.619 291.126 923.192 289.411 925.398 287.205C927.604 285 929.32 282.304 930.545 279.119C931.893 275.933 932.567 272.319 932.567 268.276C932.567 264.232 931.893 260.618 930.545 257.432C929.32 254.247 927.604 251.551 925.398 249.346C923.192 247.141 920.619 245.486 917.678 244.384C914.859 243.159 911.918 242.546 908.854 242.546C905.668 242.546 902.666 243.159 899.847 244.384C897.028 245.486 894.516 247.141 892.31 249.346C890.104 251.551 888.328 254.247 886.979 257.432C885.754 260.618 885.141 264.232 885.141 268.276C885.141 272.319 885.754 275.933 886.979 279.119C888.328 282.304 890.104 285 892.31 287.205C894.516 289.411 897.028 291.126 899.847 292.351C902.666 293.454 905.668 294.005 908.854 294.005Z" fill="#2C2728"/>
<path d="M966.392 226.005H989.002V238.503H990.472C991.575 236.297 993.046 234.276 994.884 232.438C996.722 230.6 998.744 229.007 1000.95 227.659C1003.28 226.312 1005.73 225.27 1008.3 224.535C1011 223.8 1013.63 223.432 1016.21 223.432C1019.39 223.432 1022.09 223.739 1024.3 224.351C1026.62 224.964 1028.58 225.76 1030.18 226.74L1023.74 248.611C1022.27 247.876 1020.62 247.324 1018.78 246.957C1017.07 246.467 1014.92 246.222 1012.35 246.222C1009.04 246.222 1006.04 246.895 1003.34 248.243C1000.64 249.468 998.315 251.245 996.355 253.573C994.516 255.901 993.046 258.658 991.943 261.843C990.963 264.906 990.472 268.276 990.472 271.951V316.059H966.392V226.005Z" fill="#2C2728"/>
<path d="M1122.46 291.616C1118.29 298.968 1112.65 304.91 1105.54 309.443C1098.56 313.977 1089.98 316.243 1079.81 316.243C1072.95 316.243 1066.57 315.079 1060.69 312.751C1054.93 310.301 1049.91 306.931 1045.62 302.643C1041.33 298.355 1037.96 293.331 1035.51 287.573C1033.18 281.692 1032.02 275.259 1032.02 268.276C1032.02 261.782 1033.18 255.656 1035.51 249.897C1037.84 244.016 1041.08 238.932 1045.25 234.643C1049.42 230.232 1054.32 226.741 1059.96 224.168C1065.72 221.595 1072.03 220.308 1078.89 220.308C1086.12 220.308 1092.55 221.533 1098.19 223.984C1103.83 226.312 1108.55 229.62 1112.35 233.908C1116.14 238.074 1119.02 243.036 1120.99 248.795C1122.95 254.553 1123.93 260.802 1123.93 267.541C1123.93 268.398 1123.93 269.133 1123.93 269.746C1123.8 270.481 1123.74 271.155 1123.74 271.768C1123.62 272.38 1123.56 273.054 1123.56 273.789H1055.73C1056.22 277.465 1057.2 280.65 1058.67 283.346C1060.26 285.919 1062.16 288.124 1064.37 289.962C1066.7 291.677 1069.21 292.964 1071.91 293.822C1074.6 294.557 1077.36 294.924 1080.18 294.924C1085.69 294.924 1090.23 293.699 1093.78 291.249C1097.46 288.676 1100.34 285.49 1102.42 281.692L1122.46 291.616ZM1100.58 256.697C1100.46 255.104 1099.91 253.328 1098.93 251.368C1098.07 249.407 1096.72 247.569 1094.88 245.854C1093.17 244.139 1090.96 242.73 1088.27 241.627C1085.69 240.524 1082.57 239.973 1078.89 239.973C1073.74 239.973 1069.21 241.443 1065.29 244.384C1061.37 247.324 1058.61 251.429 1057.02 256.697H1100.58Z" fill="#2C2728"/>
<path d="M1173.93 316.243C1168.04 316.243 1162.77 315.508 1158.12 314.038C1153.58 312.568 1149.6 310.668 1146.17 308.34C1142.86 305.89 1140.04 303.133 1137.71 300.07C1135.39 296.885 1133.61 293.699 1132.38 290.513L1153.89 281.324C1155.97 285.98 1158.73 289.472 1162.16 291.8C1165.72 294.005 1169.64 295.108 1173.93 295.108C1178.34 295.108 1181.83 294.312 1184.4 292.719C1186.98 291.126 1188.26 289.227 1188.26 287.022C1188.26 284.571 1187.16 282.611 1184.96 281.14C1182.87 279.548 1179.2 278.139 1173.93 276.913L1161.24 274.157C1158.42 273.544 1155.48 272.564 1152.42 271.216C1149.48 269.868 1146.78 268.153 1144.33 266.07C1141.88 263.987 1139.86 261.476 1138.27 258.535C1136.67 255.595 1135.88 252.164 1135.88 248.243C1135.88 243.832 1136.79 239.912 1138.63 236.481C1140.59 233.05 1143.23 230.171 1146.54 227.843C1149.85 225.393 1153.71 223.555 1158.12 222.33C1162.65 220.982 1167.49 220.308 1172.64 220.308C1181.22 220.308 1188.88 222.023 1195.62 225.454C1202.36 228.762 1207.32 234.092 1210.51 241.443L1189.74 249.897C1188.02 246.344 1185.51 243.771 1182.2 242.178C1178.89 240.586 1175.58 239.789 1172.27 239.789C1168.84 239.789 1165.84 240.524 1163.26 241.995C1160.69 243.342 1159.4 245.119 1159.4 247.324C1159.4 249.407 1160.45 251.061 1162.53 252.286C1164.74 253.512 1167.68 254.614 1171.35 255.595L1185.14 258.903C1194.33 261.108 1201.13 264.661 1205.54 269.562C1210.08 274.341 1212.35 280.038 1212.35 286.654C1212.35 290.575 1211.43 294.312 1209.59 297.865C1207.75 301.418 1205.12 304.604 1201.68 307.422C1198.37 310.117 1194.33 312.261 1189.55 313.854C1184.89 315.447 1179.69 316.243 1173.93 316.243Z" fill="#2C2728"/>
<path d="M1235.51 245.67H1219.7V225.086H1235.51V197.519H1259.59V225.086H1281.65V245.67H1259.59V280.589C1259.59 282.672 1259.77 284.632 1260.14 286.47C1260.63 288.185 1261.49 289.656 1262.71 290.881C1264.43 292.841 1266.88 293.821 1270.07 293.821C1272.15 293.821 1273.8 293.638 1275.03 293.27C1276.26 292.78 1277.42 292.167 1278.52 291.432L1285.32 312.567C1282.51 313.915 1279.44 314.895 1276.13 315.508C1272.95 316.243 1269.39 316.611 1265.47 316.611C1260.94 316.611 1256.83 315.937 1253.15 314.589C1249.6 313.119 1246.6 311.158 1244.15 308.708C1238.39 303.194 1235.51 295.353 1235.51 285.184V245.67Z" fill="#2C2728"/>
</svg>
