<svg width="180" height="48" viewBox="0 0 180 48" fill="none" xmlns="http://www.w3.org/2000/svg">
<path d="M58 18.9858H64.165C65.6086 18.9858 66.9078 19.2101 68.0627 19.6585C69.2175 20.1069 70.2026 20.745 71.0178 21.5729C71.833 22.3835 72.4529 23.358 72.8774 24.4963C73.319 25.6346 73.5398 26.885 73.5398 28.2475C73.5398 29.6273 73.319 30.8863 72.8774 32.0247C72.4529 33.163 71.833 34.1374 71.0178 34.948C70.2026 35.7587 69.2175 36.3882 68.0627 36.8366C66.9078 37.285 65.6086 37.5092 64.165 37.5092H58V18.9858ZM64.0121 34.1978C65.0141 34.1978 65.8973 34.0598 66.6615 33.7839C67.4258 33.4907 68.0627 33.0854 68.5722 32.5679C69.0817 32.0505 69.4638 31.4296 69.7185 30.7053C69.9733 29.9636 70.1007 29.1444 70.1007 28.2475C70.1007 27.3507 69.9733 26.5401 69.7185 25.8157C69.4638 25.0741 69.0817 24.4446 68.5722 23.9271C68.0627 23.4097 67.4258 23.013 66.6615 22.7371C65.8973 22.4439 65.0141 22.2973 64.0121 22.2973H61.4391V34.1978H64.0121Z" fill="white"/>
<path d="M83.118 36.1642H82.9142C82.5235 36.6471 82.048 37.0611 81.4876 37.406C80.9441 37.751 80.2393 37.9234 79.3731 37.9234C78.7278 37.9234 78.1164 37.8113 77.5389 37.5871C76.9785 37.3802 76.4859 37.087 76.0614 36.7075C75.6368 36.3281 75.3056 35.871 75.0678 35.3364C74.8301 34.8017 74.7112 34.2153 74.7112 33.5772C74.7112 32.9218 74.8386 32.3354 75.0933 31.818C75.3481 31.2833 75.7047 30.8262 76.1633 30.4468C76.6218 30.0674 77.1568 29.7828 77.7682 29.5931C78.3966 29.3861 79.0759 29.2826 79.8062 29.2826C80.6214 29.2826 81.2922 29.3516 81.8187 29.4896C82.3452 29.6103 82.7783 29.7397 83.118 29.8777V29.4896C83.118 28.817 82.8547 28.2651 82.3282 27.8339C81.8017 27.3854 81.1479 27.1612 80.3666 27.1612C79.2118 27.1612 78.2352 27.6528 77.437 28.6359L75.0169 26.9543C76.3416 25.2641 78.1503 24.4189 80.4431 24.4189C82.3792 24.4189 83.8567 24.8846 84.8757 25.816C85.8947 26.7301 86.4042 28.0926 86.4042 29.9035V37.5095H83.118V36.1642ZM83.118 32.3612C82.7273 32.1715 82.3197 32.0249 81.8952 31.9214C81.4876 31.8007 81.0375 31.7403 80.545 31.7403C79.7468 31.7403 79.1269 31.9214 78.6853 32.2836C78.2607 32.6286 78.0484 33.0597 78.0484 33.5772C78.0484 34.0946 78.2522 34.5085 78.6598 34.819C79.0844 35.1294 79.5684 35.2846 80.1119 35.2846C80.5535 35.2846 80.9611 35.207 81.3347 35.0518C81.7083 34.8793 82.0225 34.6637 82.2773 34.405C82.549 34.1291 82.7528 33.8186 82.8887 33.4737C83.0415 33.1115 83.118 32.7407 83.118 32.3612Z" fill="white"/>
<path d="M89.7922 27.6009H87.6013V24.7034H89.7922V20.8228H93.1294V24.7034H96.1864V27.6009H93.1294V32.5163C93.1294 32.8095 93.1549 33.0855 93.2058 33.3442C93.2738 33.5856 93.3927 33.7926 93.5625 33.9651C93.8003 34.241 94.1399 34.379 94.5815 34.379C94.8702 34.379 95.0995 34.3531 95.2693 34.3014C95.4392 34.2324 95.6005 34.1461 95.7533 34.0427L96.6959 37.0178C96.3053 37.2075 95.8807 37.3455 95.4222 37.4317C94.9806 37.5352 94.4881 37.5869 93.9446 37.5869C93.3162 37.5869 92.7473 37.4921 92.2378 37.3024C91.7453 37.0954 91.3292 36.8195 90.9895 36.4745C90.1913 35.6984 89.7922 34.5946 89.7922 33.1631V27.6009Z" fill="white"/>
<path d="M106.556 36.1642H106.353C105.962 36.6471 105.486 37.0611 104.926 37.406C104.383 37.751 103.678 37.9234 102.812 37.9234C102.166 37.9234 101.555 37.8113 100.977 37.5871C100.417 37.3802 99.9244 37.087 99.4998 36.7075C99.0753 36.3281 98.7441 35.871 98.5063 35.3364C98.2685 34.8017 98.1497 34.2153 98.1497 33.5772C98.1497 32.9218 98.277 32.3354 98.5318 31.818C98.7865 31.2833 99.1432 30.8262 99.6017 30.4468C100.06 30.0674 100.595 29.7828 101.207 29.5931C101.835 29.3861 102.514 29.2826 103.245 29.2826C104.06 29.2826 104.731 29.3516 105.257 29.4896C105.784 29.6103 106.217 29.7397 106.556 29.8777V29.4896C106.556 28.817 106.293 28.2651 105.767 27.8339C105.24 27.3854 104.586 27.1612 103.805 27.1612C102.65 27.1612 101.674 27.6528 100.875 28.6359L98.4554 26.9543C99.7801 25.2641 101.589 24.4189 103.882 24.4189C105.818 24.4189 107.295 24.8846 108.314 25.816C109.333 26.7301 109.843 28.0926 109.843 29.9035V37.5095H106.556V36.1642ZM106.556 32.3612C106.166 32.1715 105.758 32.0249 105.334 31.9214C104.926 31.8007 104.476 31.7403 103.983 31.7403C103.185 31.7403 102.565 31.9214 102.124 32.2836C101.699 32.6286 101.487 33.0597 101.487 33.5772C101.487 34.0946 101.691 34.5085 102.098 34.819C102.523 35.1294 103.007 35.2846 103.55 35.2846C103.992 35.2846 104.4 35.207 104.773 35.0518C105.147 34.8793 105.461 34.6637 105.716 34.405C105.987 34.1291 106.191 33.8186 106.327 33.4737C106.48 33.1115 106.556 32.7407 106.556 32.3612Z" fill="white"/>
<path d="M118.401 18.7788C118.876 18.7788 119.318 18.8219 119.726 18.9082C120.133 18.9944 120.498 19.1065 120.821 19.2445L119.878 22.2713C119.709 22.1851 119.522 22.1161 119.318 22.0644C119.131 22.0126 118.893 21.9868 118.605 21.9868C118.112 21.9868 117.721 22.1506 117.433 22.4783C117.144 22.7888 117 23.2286 117 23.7977V24.8325H120.108V27.7301H117V37.5092H113.662V27.7301H111.421V24.8325H113.662V23.5908C113.662 22.8146 113.773 22.1334 113.994 21.547C114.231 20.9433 114.563 20.4432 114.987 20.0465C115.412 19.6325 115.913 19.3221 116.49 19.1151C117.068 18.8909 117.705 18.7788 118.401 18.7788Z" fill="white"/>
<path d="M127.827 24.0308C128.795 24.0308 129.679 24.2032 130.477 24.5482C131.292 24.8759 131.988 25.3415 132.566 25.9452C133.16 26.5316 133.619 27.2387 133.941 28.0666C134.281 28.8944 134.451 29.7999 134.451 30.783C134.451 31.7661 134.281 32.6716 133.941 33.4994C133.619 34.3273 133.16 35.043 132.566 35.6467C131.988 36.2331 131.292 36.6988 130.477 37.0437C129.679 37.3714 128.795 37.5353 127.827 37.5353C126.859 37.5353 125.968 37.3714 125.152 37.0437C124.354 36.6988 123.658 36.2331 123.064 35.6467C122.486 35.043 122.028 34.3273 121.688 33.4994C121.365 32.6716 121.204 31.7661 121.204 30.783C121.204 29.7999 121.365 28.8944 121.688 28.0666C122.028 27.2387 122.486 26.5316 123.064 25.9452C123.658 25.3415 124.354 24.8759 125.152 24.5482C125.968 24.2032 126.859 24.0308 127.827 24.0308ZM127.827 34.4049C128.252 34.4049 128.66 34.3273 129.05 34.1721C129.458 33.9996 129.814 33.7581 130.12 33.4477C130.426 33.1372 130.664 32.7578 130.833 32.3094C131.02 31.861 131.114 31.3522 131.114 30.783C131.114 30.2139 131.02 29.7051 130.833 29.2566C130.664 28.8082 130.426 28.4288 130.12 28.1183C129.814 27.8079 129.458 27.575 129.05 27.4198C128.66 27.2473 128.252 27.1611 127.827 27.1611C127.386 27.1611 126.97 27.2473 126.579 27.4198C126.188 27.575 125.84 27.8079 125.535 28.1183C125.229 28.4288 124.983 28.8082 124.796 29.2566C124.626 29.7051 124.541 30.2139 124.541 30.783C124.541 31.3522 124.626 31.861 124.796 32.3094C124.983 32.7578 125.229 33.1372 125.535 33.4477C125.84 33.7581 126.188 33.9996 126.579 34.1721C126.97 34.3273 127.386 34.4049 127.827 34.4049Z" fill="white"/>
<path d="M135.801 24.8324H138.935V26.5916H139.139C139.291 26.2812 139.495 25.9966 139.75 25.7379C140.005 25.4792 140.285 25.255 140.591 25.0652C140.913 24.8755 141.253 24.7289 141.61 24.6254C141.983 24.522 142.348 24.4702 142.705 24.4702C143.147 24.4702 143.52 24.5133 143.826 24.5996C144.149 24.6858 144.42 24.7979 144.641 24.9359L143.749 28.0145C143.546 27.911 143.316 27.8334 143.062 27.7817C142.824 27.7127 142.527 27.6782 142.17 27.6782C141.711 27.6782 141.295 27.773 140.922 27.9628C140.548 28.1352 140.225 28.3853 139.954 28.713C139.699 29.0407 139.495 29.4288 139.342 29.8772C139.206 30.3084 139.139 30.7827 139.139 31.3001V37.509H135.801V24.8324Z" fill="white"/>
<path d="M157.429 34.0686C156.852 35.1034 156.071 35.9399 155.086 36.578C154.118 37.2162 152.929 37.5353 151.519 37.5353C150.568 37.5353 149.685 37.3714 148.87 37.0437C148.072 36.6988 147.375 36.2245 146.781 35.6208C146.186 35.0172 145.719 34.31 145.38 33.4994C145.057 32.6716 144.896 31.7661 144.896 30.783C144.896 29.8689 145.057 29.0066 145.38 28.1959C145.702 27.3681 146.153 26.6523 146.73 26.0487C147.307 25.4278 147.987 24.9362 148.768 24.574C149.566 24.2119 150.441 24.0308 151.392 24.0308C152.394 24.0308 153.286 24.2032 154.067 24.5482C154.848 24.8759 155.502 25.3415 156.028 25.9452C156.555 26.5316 156.954 27.2301 157.226 28.0407C157.497 28.8513 157.633 29.7309 157.633 30.6795C157.633 30.8003 157.633 30.9037 157.633 30.99C157.616 31.0935 157.608 31.1883 157.608 31.2745C157.591 31.3608 157.582 31.4556 157.582 31.5591H148.182C148.25 32.0765 148.386 32.525 148.59 32.9044C148.81 33.2666 149.074 33.577 149.379 33.8357C149.702 34.0772 150.05 34.2583 150.424 34.379C150.797 34.4825 151.18 34.5343 151.57 34.5343C152.334 34.5343 152.963 34.3618 153.455 34.0168C153.965 33.6547 154.364 33.2062 154.653 32.6716L157.429 34.0686ZM154.398 29.1532C154.381 28.9289 154.305 28.6789 154.169 28.4029C154.05 28.127 153.863 27.8682 153.608 27.6268C153.37 27.3853 153.065 27.187 152.691 27.0318C152.334 26.8765 151.901 26.7989 151.392 26.7989C150.679 26.7989 150.05 27.0059 149.507 27.4198C148.963 27.8338 148.581 28.4115 148.36 29.1532H154.398Z" fill="white"/>
<path d="M164.562 37.5353C163.747 37.5353 163.016 37.4318 162.371 37.2248C161.743 37.0178 161.191 36.7505 160.715 36.4228C160.257 36.0779 159.866 35.6898 159.543 35.2586C159.221 34.8102 158.974 34.3618 158.804 33.9134L161.785 32.6198C162.074 33.2752 162.456 33.7668 162.931 34.0945C163.424 34.4049 163.967 34.5601 164.562 34.5601C165.173 34.5601 165.657 34.448 166.014 34.2238C166.371 33.9996 166.549 33.7323 166.549 33.4218C166.549 33.0769 166.396 32.8009 166.09 32.594C165.802 32.3697 165.292 32.1714 164.562 31.9989L162.804 31.6109C162.413 31.5246 162.006 31.3867 161.581 31.1969C161.174 31.0072 160.8 30.7658 160.46 30.4726C160.121 30.1794 159.84 29.8258 159.62 29.4119C159.399 28.9979 159.288 28.515 159.288 27.9631C159.288 27.3422 159.416 26.7903 159.671 26.3074C159.942 25.8245 160.307 25.4192 160.766 25.0915C161.225 24.7465 161.76 24.4878 162.371 24.3153C162.999 24.1256 163.67 24.0308 164.383 24.0308C165.572 24.0308 166.634 24.2722 167.568 24.7551C168.502 25.2208 169.19 25.9711 169.631 27.0059L166.753 28.1959C166.515 27.6958 166.167 27.3336 165.708 27.1094C165.25 26.8852 164.791 26.7731 164.333 26.7731C163.857 26.7731 163.441 26.8765 163.084 27.0835C162.728 27.2732 162.549 27.5233 162.549 27.8338C162.549 28.127 162.694 28.3598 162.982 28.5323C163.288 28.7047 163.696 28.86 164.205 28.9979L166.116 29.4636C167.39 29.7741 168.332 30.2742 168.944 30.9641C169.572 31.6367 169.886 32.4387 169.886 33.3701C169.886 33.922 169.759 34.448 169.504 34.9482C169.249 35.4484 168.884 35.8968 168.409 36.2935C167.95 36.6729 167.39 36.9747 166.727 37.1989C166.082 37.4231 165.36 37.5353 164.562 37.5353Z" fill="white"/>
<path d="M173.096 27.6009H170.905V24.7034H173.096V20.8228H176.433V24.7034H179.49V27.6009H176.433V32.5163C176.433 32.8095 176.459 33.0855 176.51 33.3442C176.578 33.5856 176.697 33.7926 176.866 33.9651C177.104 34.241 177.444 34.379 177.885 34.379C178.174 34.379 178.403 34.3531 178.573 34.3014C178.743 34.2324 178.904 34.1461 179.057 34.0427L180 37.0178C179.609 37.2075 179.185 37.3455 178.726 37.4317C178.285 37.5352 177.792 37.5869 177.249 37.5869C176.62 37.5869 176.051 37.4921 175.542 37.3024C175.049 37.0954 174.633 36.8195 174.293 36.4745C173.495 35.6984 173.096 34.5946 173.096 33.1631V27.6009Z" fill="white"/>
<path d="M25.3827 9.46802C27.1036 9.46802 28.4986 8.11607 28.4986 6.44836C28.4986 4.78066 27.1036 3.42871 25.3827 3.42871C23.6619 3.42871 22.2668 4.78066 22.2668 6.44836C22.2668 8.11607 23.6619 9.46802 25.3827 9.46802Z" fill="white"/>
<path d="M34.7301 24.1887C36.451 24.1887 37.846 22.8368 37.846 21.1691C37.846 19.5014 36.451 18.1494 34.7301 18.1494C33.0093 18.1494 31.6143 19.5014 31.6143 21.1691C31.6143 22.8368 33.0093 24.1887 34.7301 24.1887Z" fill="white"/>
<path d="M44.0785 38.9094C45.7994 38.9094 47.1944 37.5575 47.1944 35.8898C47.1944 34.2221 45.7994 32.8701 44.0785 32.8701C42.3577 32.8701 40.9626 34.2221 40.9626 35.8898C40.9626 37.5575 42.3577 38.9094 44.0785 38.9094Z" fill="white"/>
<path d="M16.0348 24.1887C17.7557 24.1887 19.1507 22.8368 19.1507 21.1691C19.1507 19.5014 17.7557 18.1494 16.0348 18.1494C14.314 18.1494 12.9189 19.5014 12.9189 21.1691C12.9189 22.8368 14.314 24.1887 16.0348 24.1887Z" fill="white"/>
<path d="M6.68742 38.9094C8.40827 38.9094 9.8033 37.5575 9.8033 35.8898C9.8033 34.2221 8.40827 32.8701 6.68742 32.8701C4.96656 32.8701 3.57153 34.2221 3.57153 35.8898C3.57153 37.5575 4.96656 38.9094 6.68742 38.9094Z" fill="white"/>
<path d="M25.3827 38.9094C27.1036 38.9094 28.4986 37.5575 28.4986 35.8898C28.4986 34.2221 27.1036 32.8701 25.3827 32.8701C23.6619 32.8701 22.2668 34.2221 22.2668 35.8898C22.2668 37.5575 23.6619 38.9094 25.3827 38.9094Z" fill="white"/>
<path d="M25.3827 12.4878C23.6667 12.4878 22.2668 13.9208 22.2668 15.698V26.6406C22.2668 28.4085 23.6577 29.8508 25.3827 29.8508C27.0987 29.8508 28.4986 28.4178 28.4986 26.6406V15.6887C28.4896 13.9208 27.0987 12.4878 25.3827 12.4878Z" fill="white"/>
<path d="M34.7301 27.2085C33.0141 27.2085 31.6143 28.6415 31.6143 30.4187V41.3613C31.6143 43.1292 33.0051 44.5715 34.7301 44.5715C36.4461 44.5715 37.846 43.1386 37.846 41.3613V30.4094C37.837 28.6415 36.4461 27.2085 34.7301 27.2085Z" fill="white"/>
<path d="M16.0348 27.2085C14.3188 27.2085 12.9189 28.6415 12.9189 30.4187V41.3613C12.9189 43.1292 14.3098 44.5715 16.0348 44.5715C17.7508 44.5715 19.1507 43.1386 19.1507 41.3613V30.4094C19.1417 28.6415 17.7508 27.2085 16.0348 27.2085Z" fill="white"/>
</svg>
